<svg xmlns="http://www.w3.org/2000/svg" xmlns:xlink="http://www.w3.org/1999/xlink" width="800" height="800" viewBox="0 0 800 800">
  <defs>
    <clipPath id="clip-path">
      <rect id="Rectángulo_6" data-name="Rectángulo 6" width="500.47" height="501.729" transform="translate(0 0)" fill="#fff"/>
    </clipPath>
    <clipPath id="clip-Coinbase">
      <rect width="800" height="800"/>
    </clipPath>
  </defs>
  <g id="Coinbase" clip-path="url(#clip-Coinbase)">
    <rect width="800" height="800" fill="#fff"/>
    <circle id="Elipse_1" data-name="Elipse 1" cx="400" cy="400" r="400" fill="#005bfe"/>
    <g id="Grupo_9" data-name="Grupo 9" transform="translate(149.765 149.134)">
      <g id="Grupo_8" data-name="Grupo 8" transform="translate(0 0.001)" clip-path="url(#clip-path)">
        <path id="Trazado_7" data-name="Trazado 7" d="M500.369,272.207H379.205c-.667,0-1.335-.017-2,.012-2.214.1-2.242.164-2.814,2.364-1.41,5.43-2.512,10.969-4.342,16.256q-16.8,48.539-62.394,72.369a121.127,121.127,0,0,1-45.48,13.111,106.335,106.335,0,0,1-18.524.288,139.849,139.849,0,0,1-19.747-2.648q-52.3-12.029-80.8-57.579a121.79,121.79,0,0,1-18.166-57.119,124.939,124.939,0,0,1,.857-25.37,122.269,122.269,0,0,1,10.862-36.813q21.987-45.522,69.064-64.114a121.291,121.291,0,0,1,34.619-7.893c5.1-.428,10.257-.092,15.388-.143a96.334,96.334,0,0,1,19.789,2.243,123.1,123.1,0,0,1,63.013,33.22,124.8,124.8,0,0,1,35.93,66.288c.57,2.836.578,2.867,3.548,2.867q59.752.007,119.5,0c2.834,0,3.188-.379,2.854-3.142-.467-3.871-1-7.733-1.519-11.6a233.022,233.022,0,0,0-10.068-43.014A250.735,250.735,0,0,0,273.65.851C266.84.2,259.964.095,253.115.03c-9.324-.089-18.657-.043-27.927,1.231-7.242,1-14.541,1.7-21.713,3.069a245.761,245.761,0,0,0-64.661,21.893A251.829,251.829,0,0,0,8.829,184.455,253.033,253.033,0,0,0,.1,241.631c-.295,7.22.121,14.471.3,21.706a210.268,210.268,0,0,0,2.9,28.1,244.3,244.3,0,0,0,20,65.038A251.866,251.866,0,0,0,167.5,487.431a236.183,236.183,0,0,0,63.4,13.264q10.536.687,21.093,1.022c2.653.088,5.322-.251,7.981-.425,5.688-.372,11.4-.528,17.055-1.2,7.722-.922,15.438-2.014,23.081-3.44a234.573,234.573,0,0,0,59.106-19.671A251.533,251.533,0,0,0,493.6,313.338a273.575,273.575,0,0,0,6.758-38.18c.092-.814.012-1.647.012-2.95" transform="translate(0 -0.001)" fill="#fff"/>
        <path id="Trazado_8" data-name="Trazado 8" d="M500.369,272.207c0,1.3.08,2.136-.012,2.95a273.575,273.575,0,0,1-6.758,38.18A251.533,251.533,0,0,1,359.214,476.976a234.573,234.573,0,0,1-59.106,19.671c-7.643,1.426-15.359,2.518-23.081,3.44-5.652.675-11.367.831-17.055,1.2-2.66.174-5.329.512-7.981.425q-10.552-.349-21.093-1.022a236.183,236.183,0,0,1-63.4-13.264A251.866,251.866,0,0,1,23.3,356.476a244.3,244.3,0,0,1-20-65.038,210.268,210.268,0,0,1-2.9-28.1c-.18-7.235-.6-14.486-.3-21.706a253.033,253.033,0,0,1,8.726-57.176A251.829,251.829,0,0,1,138.813,26.222,245.762,245.762,0,0,1,203.474,4.329c7.172-1.367,14.471-2.073,21.713-3.069,9.27-1.274,18.6-1.32,27.927-1.231C259.964.095,266.84.2,273.65.851A251.37,251.37,0,0,1,488.78,171.787,233.022,233.022,0,0,1,498.848,214.8c.515,3.865,1.051,7.727,1.519,11.6.334,2.763-.019,3.142-2.854,3.142q-59.751.012-119.5,0c-2.97,0-2.978-.031-3.548-2.867a124.8,124.8,0,0,0-35.93-66.288,123.1,123.1,0,0,0-63.013-33.22,96.334,96.334,0,0,0-19.789-2.243c-5.131.051-10.291-.285-15.388.143a121.291,121.291,0,0,0-34.619,7.893q-47.018,18.584-69.064,64.114A122.269,122.269,0,0,0,125.8,233.891a124.939,124.939,0,0,0-.857,25.37,121.79,121.79,0,0,0,18.166,57.119q28.382,45.546,80.8,57.579a139.849,139.849,0,0,0,19.747,2.648,106.335,106.335,0,0,0,18.524-.288,121.127,121.127,0,0,0,45.48-13.111q45.582-23.754,62.394-72.369c1.83-5.286,2.932-10.826,4.342-16.256.571-2.2.6-2.268,2.814-2.364.666-.029,1.334-.012,2-.012H500.369" transform="translate(0 -0.001)" fill="#fff"/>
      </g>
    </g>
  </g>
</svg>
